<svg height="512pt" viewBox="0 0 511 512" width="512pt" xmlns="http://www.w3.org/2000/svg"><path d="m501.164062 281.765625c-12.878906 123.75-117.511718 220.234375-244.667968 220.234375-135.863282 0-245.996094-110.144531-245.996094-246.003906 0-135.863282 110.132812-245.996094 245.996094-245.996094 20.257812 0 39.941406 2.449219 58.773437 7.066406-.085937 1.261719-.128906 2.542969-.128906 3.824219 0 16.371094 6.605469 31.195313 17.265625 41.960937-10.660156 10.765626-17.265625 25.59375-17.265625 41.960938 0 31.828125 24.960937 57.828125 56.367187 59.511719-.496093 3.070312-.746093 6.222656-.746093 9.429687 0 32.917969 26.683593 59.59375 59.589843 59.59375 6.265626 0 12.3125-.96875 17.992188-2.765625 3.667969 27.054688 25.507812 48.34375 52.820312 51.183594zm0 0" fill="#dca98b"/><g fill="#b57957"><path d="m206.03125 294.292969c0 27.894531-22.613281 50.511719-50.511719 50.511719-27.894531 0-50.507812-22.617188-50.507812-50.511719 0-27.898438 22.613281-50.511719 50.507812-50.511719 27.898438 0 50.511719 22.613281 50.511719 50.511719zm0 0"/><path d="m354.285156 356.855469c0 19.191406-15.558594 34.75-34.75 34.75-19.1875 0-34.746094-15.558594-34.746094-34.75 0-19.1875 15.558594-34.746094 34.746094-34.746094 19.191406 0 34.75 15.558594 34.75 34.746094zm0 0"/><path d="m266.535156 162.914062c-7.746094-7.746093-20.308594-7.746093-28.054687 0-7.746094 7.75-7.746094 20.308594 0 28.054688 7.746093 7.746094 20.308593 7.746094 28.054687 0s7.746094-20.304688 0-28.054688zm0 0"/></g><path d="m508.929688 275.464844c-1.671876-2.0625-4.09375-3.371094-6.730469-3.648438-22.796875-2.367187-40.867188-19.878906-43.945313-42.578125-.398437-2.925781-2.066406-5.523437-4.558594-7.101562-2.496093-1.578125-5.558593-1.976563-8.371093-1.085938-4.816407 1.523438-9.851563 2.296875-14.96875 2.296875-27.347657 0-49.59375-22.246094-49.59375-49.59375 0-2.648437.207031-5.285156.621093-7.84375.449219-2.796875-.3125-5.65625-2.09375-7.867187-1.777343-2.207031-4.414062-3.554688-7.246093-3.703125-26.300781-1.410156-46.898438-23.164063-46.898438-49.523438 0-13.164062 5.101563-25.566406 14.367188-34.925781 3.859375-3.898437 3.859375-10.175781 0-14.074219-9.265625-9.355468-14.367188-21.761718-14.367188-34.921875 0-1.066406.035157-2.128906.101563-3.160156.324218-4.847656-2.878906-9.226563-7.597656-10.382813-19.90625-4.878906-40.480469-7.351562-61.152344-7.351562-68.378906 0-132.667969 26.628906-181.015625 74.980469-48.351563 48.347656-74.980469 112.632812-74.980469 181.015625 0 68.378906 26.628906 132.667968 74.976562 181.019531 48.351563 48.355469 112.640626 74.984375 181.019532 74.984375 35.171875 0 69.269531-7.019531 101.351562-20.867188 5.070313-2.1875 7.40625-8.074218 5.214844-13.144531-2.1875-5.070312-8.074219-7.402343-13.140625-5.21875-29.5625 12.761719-60.996094 19.230469-93.425781 19.230469-63.035156 0-122.300782-24.550781-166.875-69.125-44.574219-44.574219-69.121094-103.84375-69.121094-166.878906 0-63.039063 24.546875-122.304688 69.121094-166.875 44.574218-44.574219 103.835937-69.121094 166.875-69.121094 16.441406 0 32.808594 1.695312 48.769531 5.042969.804687 13.8125 5.640625 26.871093 13.929687 37.8125-9.117187 12.027343-14.050781 26.625-14.050781 41.960937 0 33.503906 23.71875 61.707032 55.621094 68.191406 0 .25-.003906.5-.003906.746094 0 38.375 31.21875 69.59375 69.59375 69.59375 3.488281 0 6.953125-.257812 10.375-.769531 6.96875 23.355469 25.683593 41.332031 49.347656 47.347656-7.691406 53.34375-33.570313 102.578125-73.5 139.460938-4.054687 3.746093-4.308594 10.074219-.558594 14.132812 3.746094 4.054688 10.074219 4.308594 14.128907.558594 45.789062-42.296875 74.542968-99.570313 80.964843-161.277344.273438-2.640625-.511719-5.277343-2.183593-7.335937zm0 0"/><path d="m95.011719 294.292969c0 33.363281 27.144531 60.511719 60.507812 60.511719 33.367188 0 60.511719-27.148438 60.511719-60.511719 0-33.367188-27.144531-60.511719-60.511719-60.511719-33.363281 0-60.507812 27.144531-60.507812 60.511719zm60.507812-40.511719c22.339844 0 40.511719 18.171875 40.511719 40.511719 0 22.335937-18.171875 40.511719-40.511719 40.511719-22.335937 0-40.507812-18.175782-40.507812-40.511719 0-22.339844 18.171875-40.511719 40.507812-40.511719zm0 0"/><path d="m319.535156 401.605469c24.675782 0 44.75-20.074219 44.75-44.75 0-24.671875-20.074218-44.746094-44.75-44.746094-24.671875 0-44.746094 20.074219-44.746094 44.746094 0 24.675781 20.074219 44.75 44.746094 44.75zm0-69.496094c13.648438 0 24.75 11.101563 24.75 24.746094s-11.101562 24.746093-24.75 24.746093c-13.644531 0-24.746094-11.101562-24.746094-24.746093s11.101563-24.746094 24.746094-24.746094zm0 0"/><path d="m273.609375 198.039062c11.632813-11.632812 11.632813-30.5625 0-42.195312s-30.5625-11.632812-42.195313 0c-11.632812 11.632812-11.632812 30.5625 0 42.195312 5.816407 5.816407 13.457032 8.726563 21.097657 8.726563 7.636719 0 15.277343-2.910156 21.097656-8.726563zm-28.054687-28.054687c3.835937-3.832031 10.074218-3.835937 13.910156 0 3.835937 3.835937 3.835937 10.078125 0 13.914063-3.835938 3.832031-10.074219 3.835937-13.910156 0-3.835938-3.835938-3.835938-10.078126 0-13.914063zm0 0"/><path d="m138.375 145.605469c0-12.636719 10.28125-22.917969 22.917969-22.917969 5.523437 0 10-4.476562 10-10s-4.476563-10-10-10c-23.664063 0-42.917969 19.253906-42.917969 42.917969 0 5.523437 4.476562 10 10 10s10-4.476563 10-10zm0 0"/><path d="m422.074219 334.046875c6.53125-6.53125 10.128906-15.214844 10.128906-24.449219 0-9.238281-3.597656-17.921875-10.128906-24.453125-3.90625-3.902343-10.238281-3.902343-14.144531 0-3.902344 3.90625-3.902344 10.238281 0 14.144531 2.753906 2.753907 4.273437 6.414063 4.273437 10.308594 0 3.894532-1.519531 7.554688-4.269531 10.308594-3.90625 3.90625-3.90625 10.238281 0 14.144531 1.953125 1.949219 4.511718 2.925781 7.070312 2.925781s5.117188-.976562 7.070313-2.929687zm0 0"/><path d="m203.460938 431.273438c19.066406 0 34.578124-15.511719 34.578124-34.578126 0-5.523437-4.476562-10-10-10-5.523437 0-10 4.476563-10 10 0 8.035157-6.542968 14.578126-14.578124 14.578126-5.523438 0-10 4.476562-10 10 0 5.519531 4.476562 10 10 10zm0 0"/><path d="m400.214844 458.1875c-1.636719-3.917969-5.707032-6.453125-9.949219-6.144531-4.152344.300781-7.75 3.234375-8.898437 7.230469-1.148438 4 .382812 8.453124 3.785156 10.871093 3.371094 2.394531 7.921875 2.464844 11.371094.183594 3.945312-2.605469 5.472656-7.785156 3.691406-12.140625zm0 0"/></svg>