<?xml version="1.0" encoding="utf-8"?>
<!-- Generator: Adobe Illustrator 21.1.0, SVG Export Plug-In . SVG Version: 6.00 Build 0)  -->
<svg version="1.1" xmlns="http://www.w3.org/2000/svg" xmlns:xlink="http://www.w3.org/1999/xlink" x="0px" y="0px"
	 viewBox="0 0 338.4 338.4" style="enable-background:new 0 0 338.4 338.4;" xml:space="preserve">
<style type="text/css">
	.st0{display:none;}
	.st1{display:inline;fill:#FFFFFF;}
	.st2{display:inline;}
	.st3{fill:#2B2B2B;}
	.st4{fill:#FFFFFF;}
	.st5{fill:#5FD3D3;}
	.st6{fill:none;stroke:#2B2B2B;stroke-width:4.25;stroke-linecap:round;stroke-linejoin:round;stroke-miterlimit:10;}
	.st7{display:inline;fill:#2B2B2B;}
	.st8{fill:#60D3D1;}
	.st9{fill:none;stroke:#2B2B2B;stroke-width:4.5;stroke-linecap:round;stroke-linejoin:round;stroke-miterlimit:10;}
	.st10{fill:#66D6D3;}
	.st11{fill:#60D3D1;stroke:#2B2B2B;stroke-width:4.5;stroke-linecap:round;stroke-linejoin:round;stroke-miterlimit:10;}
	.st12{fill:none;stroke:#60D3D1;stroke-width:4.5;stroke-linecap:round;stroke-linejoin:round;}
	.st13{fill:none;stroke:#60D3D1;stroke-width:4.5;stroke-linecap:round;stroke-linejoin:round;stroke-dasharray:7.8741,12.7954;}
	.st14{fill:none;stroke:#60D3D1;stroke-width:4.5;stroke-linecap:round;stroke-linejoin:round;stroke-miterlimit:10;}
	
		.st15{fill:none;stroke:#60D3D1;stroke-width:4.5;stroke-linecap:round;stroke-linejoin:round;stroke-miterlimit:10;stroke-dasharray:8,13;}
	.st16{fill:none;stroke:#2B2B2B;stroke-width:4.25;stroke-miterlimit:10;}
	.st17{fill:none;stroke:#2B2B2B;stroke-width:4.5;stroke-linecap:round;stroke-linejoin:round;}
	.st18{fill:none;stroke:#2B2B2B;stroke-width:4.5;stroke-linecap:round;stroke-linejoin:round;stroke-dasharray:7.8741,12.7954;}
	
		.st19{fill:none;stroke:#2B2B2B;stroke-width:4.5;stroke-linecap:round;stroke-linejoin:round;stroke-miterlimit:10;stroke-dasharray:8,13;}
	.st20{fill:#7FDCDC;}
	.st21{fill:none;stroke:#2B2B2B;stroke-width:4.5;stroke-linejoin:round;stroke-miterlimit:10;}
	.st22{fill:none;stroke:#2B2B2B;stroke-width:4.25;stroke-linecap:round;stroke-miterlimit:10;}
	
		.st23{fill:none;stroke:#2B2B2B;stroke-width:8;stroke-linecap:round;stroke-linejoin:round;stroke-miterlimit:10;stroke-dasharray:0,16;}
	
		.st24{fill:none;stroke:#60D3D1;stroke-width:8;stroke-linecap:round;stroke-linejoin:round;stroke-miterlimit:10;stroke-dasharray:0,16;}
	.st25{fill:none;stroke:#2B2B2B;stroke-width:4;stroke-linecap:round;stroke-linejoin:round;stroke-miterlimit:10;}
	.st26{fill:none;stroke:#2B2B2B;stroke-width:3;stroke-linecap:round;stroke-linejoin:round;stroke-miterlimit:10;}
	.st27{fill:#FFFFFF;stroke:#2B2B2B;stroke-width:4.5;stroke-linecap:round;stroke-linejoin:round;stroke-miterlimit:10;}
	.st28{opacity:0.7;}
	.st29{opacity:0.7;fill:#00BAB6;}
	.st30{fill:none;stroke:#2B2B2B;stroke-width:4.5;stroke-linecap:round;stroke-linejoin:round;stroke-dasharray:7.6106,12.3672;}
	.st31{fill:none;stroke:#60D3D1;stroke-width:4.5;stroke-linecap:round;stroke-linejoin:round;stroke-dasharray:7.6106,12.3672;}
	.st32{fill:none;stroke:#2B2B2B;stroke-width:4.25;stroke-linecap:round;stroke-linejoin:round;}
	.st33{fill:#2B2B2B;stroke:#2B2B2B;stroke-width:2;stroke-miterlimit:10;}
	.st34{fill:none;}
</style>
<g id="labels" class="st0">
	<rect x="-5679" y="-477.3" class="st1" width="6257.5" height="1291.4"/>
</g>
<g id="gray_background" class="st0">
</g>
<g id="Layer_1">
	<g>
		<g>
			<g>
				<g>
					<path class="st8" d="M237.9,162.5l-3.9-41.8L221.7,132c-10.3-7.4-35.6-21.8-62.9-14.8c-30.4,7.8-38.8,30.6-42.4,45.7
						c0,0,20-24,41.2-25.8c13.3-1.1,27.7,1.1,41.3,14.6l-11.9,11L237.9,162.5z"/>
				</g>
			</g>
		</g>
		<g>
			<path class="st3" d="M170,197.8c-14.5,0-26.2-11.8-26.2-26.2c0-6.8,2.6-13.2,7.3-18.2c2.3-2.4,4.9-4.2,7.8-5.6
				c1.1-0.5,2.5,0,3,1.1c0.5,1.1,0,2.5-1.1,3c-2.4,1.1-4.6,2.7-6.5,4.7c-3.9,4.1-6,9.4-6,15c0,12,9.7,21.7,21.7,21.7
				s21.7-9.7,21.7-21.7c0-1.2,1-2.2,2.2-2.2s2.2,1,2.2,2.2C196.2,186,184.4,197.8,170,197.8z"/>
		</g>
		<g>
			<g>
				<path class="st3" d="M273.1,90.9c-0.7,0-1.3-0.3-1.8-0.9c-24.6-32-61.9-50.4-102.2-50.4c-8.8,0-17.7,0.9-26.2,2.7
					c-1.2,0.3-2.4-0.5-2.7-1.7c-0.3-1.2,0.5-2.4,1.7-2.7c8.9-1.8,18-2.8,27.2-2.8c41.7,0,80.3,19,105.8,52.1c0.8,1,0.6,2.4-0.4,3.2
					C274,90.8,273.6,90.9,273.1,90.9z"/>
			</g>
			<g>
				<path class="st3" d="M86.5,69c-0.7,0-1.3-0.3-1.7-0.8c-0.8-1-0.6-2.4,0.3-3.2c2.1-1.7,4.3-3.4,6.5-4.9c1-0.7,2.4-0.5,3.1,0.5
					c0.7,1,0.5,2.4-0.5,3.1c-2.1,1.5-4.2,3.1-6.2,4.8C87.5,68.8,87,69,86.5,69z M103.8,57.1c-0.8,0-1.5-0.4-2-1.1
					c-0.6-1.1-0.2-2.5,0.8-3.1c2.3-1.3,4.8-2.6,7.2-3.8c1.1-0.6,2.5-0.1,3,1c0.6,1.1,0.1,2.5-1,3c-2.3,1.2-4.7,2.4-6.9,3.7
					C104.6,57,104.2,57.1,103.8,57.1z M122.8,48.1c-0.9,0-1.8-0.6-2.1-1.5c-0.4-1.2,0.1-2.5,1.3-2.9c2.3-0.9,4.7-1.7,7.1-2.4
					c1.2-0.4,2.4,0.3,2.8,1.5c0.4,1.2-0.3,2.4-1.5,2.8c-2.3,0.7-4.6,1.5-6.8,2.4C123.3,48.1,123,48.1,122.8,48.1z"/>
			</g>
			<g>
				<path class="st3" d="M102.9,283.9c-0.4,0-0.8-0.1-1.1-0.3c-19.7-11.6-36.2-28.1-47.8-47.8c-11.9-20.3-18.2-43.6-18.2-67.3
					c0-23.7,6.3-47,18.3-67.4c0.6-1.1,2-1.4,3.1-0.8c1.1,0.6,1.4,2,0.8,3.1c-11.5,19.7-17.6,42.2-17.6,65.1c0,22.9,6.1,45.4,17.6,65
					c11.2,19.1,27.1,35,46.2,46.2c1.1,0.6,1.4,2,0.8,3.1C104.4,283.5,103.7,283.9,102.9,283.9z"/>
			</g>
			<g>
				<path class="st3" d="M164.1,301.8C164.1,301.8,164,301.8,164.1,301.8c-2.8-0.1-5.5-0.3-8.2-0.6c-1.2-0.1-2.1-1.2-2-2.5
					c0.1-1.2,1.2-2.1,2.5-2c2.6,0.3,5.2,0.4,7.8,0.5c1.2,0,2.2,1.1,2.2,2.3C166.3,300.8,165.3,301.8,164.1,301.8z M177.1,301.6
					c-1.2,0-2.2-0.9-2.2-2.1c-0.1-1.2,0.9-2.3,2.1-2.4c2.6-0.2,5.2-0.4,7.8-0.7c1.2-0.2,2.4,0.7,2.5,2c0.1,1.2-0.7,2.4-2,2.5
					c-2.7,0.3-5.4,0.6-8.1,0.7C177.2,301.6,177.1,301.6,177.1,301.6z M143.3,299.3c-0.1,0-0.3,0-0.4,0c-2.6-0.5-5.3-1.1-7.9-1.8
					c-1.2-0.3-1.9-1.5-1.6-2.8c0.3-1.2,1.5-1.9,2.8-1.6c2.5,0.7,5.1,1.3,7.7,1.8c1.2,0.2,2,1.4,1.8,2.6
					C145.3,298.6,144.3,299.3,143.3,299.3z M197.9,298.7c-1,0-2-0.7-2.2-1.8c-0.3-1.2,0.5-2.4,1.7-2.7c2.5-0.6,5.1-1.2,7.6-1.9
					c1.2-0.3,2.4,0.3,2.8,1.5c0.3,1.2-0.3,2.4-1.5,2.8c-2.6,0.8-5.2,1.4-7.9,2C198.2,298.7,198,298.7,197.9,298.7z M123.1,293.5
					c-0.3,0-0.5,0-0.8-0.1c-2.5-0.9-4.9-1.9-7.3-3c-1.1-0.5-1.6-1.8-1.1-3c0.5-1.1,1.8-1.6,3-1.1c2.3,1,4.7,2,7.1,2.9
					c1.2,0.4,1.8,1.7,1.3,2.9C124.9,293,124,293.5,123.1,293.5z"/>
			</g>
			<g>
				<path class="st3" d="M249,274.7c-0.7,0-1.3-0.3-1.8-0.9c-0.8-1-0.6-2.4,0.4-3.2c24.6-19,41.6-46.1,47.7-76.4
					c0.2-1.2,1.4-2,2.7-1.8c1.2,0.2,2,1.4,1.8,2.7c-6.4,31.4-23.9,59.4-49.4,79.1C250,274.5,249.5,274.7,249,274.7z"/>
			</g>
			<g>
				<path class="st3" d="M299.6,183.2c-0.1,0-0.1,0-0.2,0c-1.2-0.1-2.1-1.2-2-2.5c0.2-2.4,0.4-4.8,0.5-7.2c0-1.2,1.1-2.2,2.3-2.2
					c1.2,0,2.2,1.1,2.2,2.3c-0.1,2.5-0.3,5-0.5,7.4C301.8,182.3,300.8,183.2,299.6,183.2z M300,162.8c-1.2,0-2.2-0.9-2.2-2.1
					c-0.2-2.6-0.4-5.2-0.7-7.8c-0.1-1.2,0.7-2.4,2-2.5c1.2-0.2,2.4,0.7,2.5,2c0.3,2.7,0.6,5.4,0.7,8.1c0.1,1.2-0.9,2.3-2.1,2.4
					C300.1,162.8,300,162.8,300,162.8z M297.1,142.1c-1,0-2-0.7-2.2-1.8c-0.6-2.5-1.2-5.1-1.9-7.6c-0.3-1.2,0.3-2.4,1.5-2.8
					c1.2-0.3,2.4,0.3,2.8,1.5c0.7,2.6,1.4,5.2,2,7.9c0.3,1.2-0.5,2.4-1.7,2.7C297.4,142.1,297.2,142.1,297.1,142.1z"/>
			</g>
		</g>
		<g>
			<g>
				<path class="st3" d="M263.6,190.8c-0.2,0-0.3,0-0.5,0c-1.2-0.3-2-1.5-1.7-2.7c1.3-6.3,2-12.7,2-19.2
					c0.1-29.5-13.2-56.8-36.6-74.9c-1-0.8-1.2-2.2-0.4-3.2c0.8-1,2.2-1.2,3.2-0.4c24.5,19,38.4,47.6,38.3,78.5
					c0,6.8-0.7,13.5-2.1,20.1C265.6,190,264.6,190.8,263.6,190.8z"/>
			</g>
			<g>
				<path class="st3" d="M243.9,231.9c-0.5,0-1-0.2-1.4-0.5c-1-0.8-1.1-2.2-0.3-3.2c1.6-2,3.2-4.1,4.7-6.2c0.7-1,2.1-1.3,3.1-0.6
					c1,0.7,1.3,2.1,0.6,3.1c-1.5,2.2-3.2,4.4-4.9,6.5C245.2,231.6,244.5,231.9,243.9,231.9z M255.3,214.3c-0.3,0-0.7-0.1-1-0.2
					c-1.1-0.6-1.6-1.9-1-3c1.2-2.3,2.3-4.7,3.2-7.1c0.5-1.2,1.8-1.7,2.9-1.2c1.2,0.5,1.7,1.8,1.2,2.9c-1,2.5-2.2,5-3.4,7.5
					C256.9,213.8,256.2,214.3,255.3,214.3z"/>
			</g>
			<g>
				<path class="st3" d="M169.1,267.3c-0.1,0-0.2,0-0.4,0c-34.9-0.1-67.5-19-85.1-49.2c-0.6-1.1-0.3-2.5,0.8-3.1
					c1.1-0.6,2.5-0.3,3.1,0.8c16.8,28.9,47.9,46.9,81.3,47c0.1,0,0.2,0,0.3,0c16.7,0,33-4.4,47.4-12.7c1.1-0.6,2.5-0.3,3.1,0.8
					c0.6,1.1,0.3,2.5-0.8,3.1C203.7,262.7,186.6,267.3,169.1,267.3z"/>
			</g>
			<g>
				<path class="st3" d="M80.7,209.7c-0.9,0-1.7-0.5-2.1-1.3c-0.6-1.4-1.2-2.9-1.8-4.4c-0.4-1.2,0.1-2.5,1.3-2.9
					c1.2-0.4,2.5,0.1,2.9,1.3c0.5,1.4,1.1,2.8,1.7,4.2c0.5,1.1,0,2.5-1.2,3C81.3,209.6,81,209.7,80.7,209.7z M75.1,193
					c-1,0-1.9-0.7-2.2-1.7c-0.6-2.6-1.1-5.3-1.5-8c-0.2-1.2,0.7-2.4,1.9-2.6c1.2-0.2,2.4,0.7,2.6,1.9c0.4,2.6,0.9,5.1,1.5,7.7
					c0.3,1.2-0.5,2.4-1.7,2.7C75.5,193,75.3,193,75.1,193z M72.6,172.2c-1.2,0-2.2-1-2.2-2.2c0-0.5,0-1,0-1.4v-0.4
					c0-2.1,0.1-4.3,0.2-6.4c0.1-1.2,1.1-2.2,2.4-2.1c1.2,0.1,2.2,1.2,2.1,2.4c-0.1,2-0.2,4.1-0.2,6.1v0.4c0,0.5,0,0.9,0,1.4
					C74.8,171.1,73.8,172.2,72.6,172.2C72.6,172.2,72.6,172.2,72.6,172.2z M74.5,151.3c-0.1,0-0.3,0-0.5,0c-1.2-0.2-2-1.4-1.8-2.7
					c0.5-2.7,1.2-5.3,2-7.9c0.4-1.2,1.6-1.9,2.8-1.5c1.2,0.3,1.9,1.6,1.5,2.8c-0.7,2.5-1.4,5-1.9,7.6
					C76.5,150.6,75.6,151.3,74.5,151.3z"/>
			</g>
			<g>
				<path class="st3" d="M92.8,111.6c-0.5,0-1-0.2-1.4-0.5c-1-0.8-1.2-2.2-0.4-3.2c14.6-18.8,35.5-31.8,58.7-36.4
					c1.2-0.2,2.4,0.5,2.6,1.8c0.2,1.2-0.5,2.4-1.8,2.6c-22.2,4.4-42.1,16.8-56.1,34.7C94.1,111.3,93.4,111.6,92.8,111.6z"/>
			</g>
			<g>
				<path class="st3" d="M196.3,78.1c-0.2,0-0.4,0-0.6-0.1c-2.5-0.7-5-1.4-7.6-1.9c-1.2-0.2-2-1.4-1.8-2.7c0.2-1.2,1.4-2,2.7-1.8
					c2.7,0.5,5.3,1.2,7.9,2c1.2,0.3,1.9,1.6,1.5,2.8C198.2,77.4,197.3,78.1,196.3,78.1z M175.7,74.4c0,0-0.1,0-0.2,0
					c-2-0.1-4-0.2-6-0.2h-0.3c-0.5,0-1,0-1.4,0c0,0,0,0,0,0c-1.2,0-2.2-1-2.2-2.2c0-1.2,1-2.3,2.2-2.3c0.5,0,1,0,1.5,0h0.3
					c2.1,0,4.2,0.1,6.3,0.2c1.2,0.1,2.2,1.2,2.1,2.4C177.8,73.5,176.8,74.4,175.7,74.4z"/>
			</g>
		</g>
		<g>
			<g>
				<g>
					<path class="st3" d="M108.4,157.2c-0.3,0-0.7-0.1-1-0.2c-0.9-0.5-1.4-1.5-1.2-2.5c1.6-6.8,4.6-17,11.6-26.4
						c7.7-10.3,18.6-17.4,32.5-21c28.3-7.3,54,7.7,63.3,14.1l11-10c0.6-0.6,1.5-0.7,2.3-0.4c0.8,0.3,1.4,1,1.4,1.9l3.9,41.8
						c0.1,0.6-0.2,1.3-0.6,1.7c-0.4,0.5-1,0.7-1.7,0.7l-51,0.2c-0.9,0-1.8-0.6-2.1-1.4c-0.3-0.9-0.1-1.8,0.6-2.5l10.2-9.3
						c-10.6-9.7-22.6-13.6-37.8-12.3c-20,1.7-39.4,24.8-39.6,25C109.7,156.9,109.1,157.2,108.4,157.2z M155.3,126.7
						c14.6,0,26.5,5,37.1,15.5c0.4,0.4,0.7,1,0.7,1.6s-0.3,1.2-0.7,1.6l-7.6,7l42.7-0.2l-3.2-34.8l-9,8.2c-0.8,0.7-2,0.8-2.8,0.2
						c-7.2-5.2-32.9-21.7-61-14.4c-23.7,6.1-33.5,21.5-38.3,35.3c7.8-7.5,21.6-18.6,36.3-19.8C151.4,126.8,153.4,126.7,155.3,126.7z
						"/>
				</g>
			</g>
		</g>
		<g>
			<path class="st3" d="M173.6,234.5h-9.1c-2.2,0-4.1-1.5-4.6-3.6l-2.6-10.4l-2.5-0.7l-7.4,7.7c-1.5,1.6-3.9,1.9-5.8,0.8l-7.9-4.6
				c-0.4-0.2-0.7-0.5-1-0.8c-1.2-1.2-1.7-3-1.2-4.7l2.9-10.3l-1.9-1.9l-10.3,2.9c-2.1,0.6-4.3-0.3-5.4-2.2l-4.6-7.9
				c-1.1-1.9-0.8-4.3,0.8-5.8l7.7-7.4l-0.7-2.5l-10.4-2.6c-2.1-0.5-3.6-2.4-3.6-4.6v-4.6c0-1.2,1-2.2,2.2-2.2s2.2,1,2.2,2.2v4.6
				c0,0.1,0.1,0.2,0.2,0.3l11.7,2.9c0.8,0.2,1.4,0.8,1.6,1.6l1.4,5.1c0.2,0.8,0,1.6-0.6,2.2l-8.6,8.4c-0.1,0.1-0.1,0.2,0,0.3
				l4.6,7.9c0.1,0.1,0.2,0.2,0.3,0.1l11.6-3.3c0.8-0.2,1.6,0,2.2,0.6l3.7,3.7c0.6,0.6,0.8,1.4,0.6,2.2l-3.3,11.6
				c0,0.1,0,0.2,0.1,0.3l8,4.6c0.1,0.1,0.2,0,0.3,0l8.4-8.6c0.6-0.6,1.4-0.8,2.2-0.6l5.1,1.4c0.8,0.2,1.4,0.8,1.6,1.6l2.9,11.7
				c0,0.1,0.1,0.2,0.3,0.2h9.1c0.1,0,0.2-0.1,0.3-0.2l2.9-11.7c0.2-0.8,0.8-1.4,1.6-1.6l5.1-1.4c0.8-0.2,1.6,0,2.2,0.6l8.4,8.6
				c0.1,0.1,0.2,0.1,0.3,0l7.9-4.6c0.1-0.1,0.2-0.2,0.1-0.3l-3.3-11.6c-0.2-0.8,0-1.6,0.6-2.2l3.7-3.7c0.6-0.6,1.4-0.8,2.2-0.6
				l11.6,3.3c0.1,0,0.2,0,0.3-0.1l4.6-7.9c0.1-0.1,0-0.2,0-0.3l-8.7-8.4c-0.6-0.6-0.8-1.4-0.6-2.2l1.4-5.1c0.2-0.8,0.8-1.4,1.6-1.6
				l11.7-2.9c0.1,0,0.2-0.1,0.2-0.3v-4.6c0-1.2,1-2.2,2.2-2.2s2.2,1,2.2,2.2v4.6c0,2.2-1.5,4.1-3.6,4.6l-10.4,2.6l-0.7,2.5l7.7,7.4
				c1.6,1.5,1.9,3.9,0.8,5.8l-4.6,7.9c-1.1,1.9-3.3,2.8-5.4,2.2l-10.3-2.9l-1.9,1.9l2.9,10.3c0.6,2.1-0.3,4.3-2.2,5.4l-7.9,4.6
				c-1.9,1.1-4.3,0.8-5.8-0.8l-7.4-7.7l-2.5,0.7l-2.6,10.4C177.7,233.1,175.8,234.5,173.6,234.5z"/>
		</g>
		<g>
			<g>
				<path class="st3" d="M59.4,241.4c-0.7,0-1.5-0.4-1.9-1c-5-7.6-9.2-15.7-12.5-24.3c-15.3-38.8-11.7-81.7,9.8-117.5
					c0.6-1.1,2-1.4,3.1-0.8c1.1,0.6,1.4,2,0.8,3.1c-20.8,34.6-24.2,76-9.5,113.5c3.2,8.2,7.3,16.1,12.1,23.4c0.7,1,0.4,2.4-0.7,3.1
					C60.3,241.3,59.9,241.4,59.4,241.4z"/>
			</g>
			<g>
				<path class="st3" d="M104.6,283.7c-0.4,0-0.8-0.1-1.1-0.3c-2.4-1.3-4.7-2.7-7-4.2c-1-0.7-1.3-2.1-0.7-3.1c0.7-1,2.1-1.3,3.1-0.7
					c2.2,1.4,4.4,2.8,6.7,4.1c1.1,0.6,1.5,2,0.9,3.1C106.2,283.3,105.4,283.7,104.6,283.7z M87.2,272c-0.5,0-1-0.2-1.4-0.5
					c-2.1-1.7-4.2-3.5-6.2-5.3c-0.9-0.8-1-2.3-0.2-3.2c0.8-0.9,2.3-1,3.2-0.2c1.9,1.7,3.9,3.5,6,5.1c1,0.8,1.1,2.2,0.4,3.2
					C88.5,271.7,87.9,272,87.2,272z M71.9,257.6c-0.6,0-1.2-0.2-1.7-0.7c-1.7-1.8-3.3-3.8-4.9-5.7c-0.8-1-0.6-2.4,0.3-3.2
					c1-0.8,2.4-0.6,3.2,0.3c1.5,1.9,3.1,3.7,4.7,5.5c0.8,0.9,0.8,2.3-0.2,3.2C73,257.4,72.5,257.6,71.9,257.6z"/>
			</g>
		</g>
	</g>
</g>
</svg>
