<?xml version="1.0" encoding="iso-8859-1"?>
<!-- Generator: Adobe Illustrator 19.0.0, SVG Export Plug-In . SVG Version: 6.00 Build 0)  -->
<svg version="1.1" id="Capa_1" xmlns="http://www.w3.org/2000/svg" xmlns:xlink="http://www.w3.org/1999/xlink" x="0px" y="0px"
	 viewBox="0 0 511.998 511.998" style="enable-background:new 0 0 511.998 511.998;" xml:space="preserve">
<polygon style="fill:#F1D5C9;" points="149.929,398.007 10,320.553 10,153.96 149.929,231.414 "/>
<path d="M50.059,306.94c-5.523,0-10-4.477-10-10v-75.021c0-3.54,1.872-6.817,4.922-8.615c3.051-1.798,6.824-1.849,9.921-0.134
	l30.793,17.044c4.832,2.674,6.581,8.76,3.906,13.592c-2.675,4.833-8.761,6.58-13.592,3.906l-15.95-8.829v58.056
	C60.059,302.463,55.582,306.94,50.059,306.94z"/>
<polygon style="fill:#F7CD95;" points="10,153.96 149.929,76.506 289.859,153.96 149.929,231.414 "/>
<path d="M149.929,195.629c-1.669,0-3.336-0.417-4.843-1.251l-57.211-31.669c-4.832-2.675-6.581-8.76-3.906-13.592
	s8.762-6.579,13.592-3.906l52.369,28.988l52.369-28.988c4.832-2.676,10.917-0.926,13.592,3.906s0.926,10.917-3.906,13.592
	l-57.212,31.668C153.266,195.212,151.597,195.629,149.929,195.629z"/>
<polygon style="fill:#F7CD95;" points="362.07,435.491 222.14,358.037 222.14,191.444 362.07,268.899 "/>
<path d="M262.199,344.425c-5.523,0-10-4.477-10-10v-75.021c0-3.541,1.872-6.817,4.922-8.615c3.051-1.798,6.825-1.849,9.921-0.134
	l30.793,17.045c4.832,2.675,6.581,8.76,3.906,13.592c-2.675,4.831-8.76,6.58-13.592,3.906l-15.95-8.829v58.056
	C272.199,339.948,267.722,344.425,262.199,344.425z"/>
<g>
	<polygon style="fill:#F1D5C9;" points="362.07,435.491 501.999,358.037 501.999,191.444 362.07,268.899 	"/>
	<polygon style="fill:#F1D5C9;" points="222.14,191.444 362.07,113.99 501.999,191.444 362.07,268.899 	"/>
	<polygon style="fill:#F1D5C9;" points="222.14,191.444 222.141,191.444 149.929,231.414 149.929,398.007 222.14,358.037 	"/>
</g>
<path d="M511.993,191.112c-0.001-0.031-0.003-0.063-0.004-0.094c-0.001-0.025-0.002-0.051-0.003-0.076
	c-0.001-0.028-0.003-0.056-0.005-0.084c-0.002-0.027-0.003-0.054-0.005-0.081c-0.002-0.026-0.004-0.051-0.006-0.077
	c-0.002-0.031-0.005-0.062-0.007-0.093c-0.002-0.02-0.004-0.041-0.006-0.061c-0.003-0.034-0.006-0.069-0.01-0.104
	c-0.003-0.024-0.005-0.049-0.008-0.073c-0.003-0.03-0.006-0.06-0.01-0.09c-0.003-0.029-0.007-0.058-0.011-0.087
	c-0.003-0.025-0.006-0.049-0.009-0.074c-0.004-0.029-0.008-0.059-0.012-0.088c-0.004-0.027-0.007-0.053-0.011-0.08
	c-0.004-0.026-0.008-0.052-0.012-0.078c-0.005-0.028-0.009-0.056-0.014-0.085c-0.004-0.026-0.009-0.051-0.013-0.077
	c-0.005-0.029-0.01-0.058-0.016-0.087c-0.005-0.026-0.01-0.052-0.015-0.078c-0.005-0.027-0.01-0.054-0.016-0.082
	c-0.005-0.027-0.011-0.054-0.017-0.081s-0.011-0.054-0.017-0.081s-0.012-0.053-0.018-0.079c-0.006-0.027-0.013-0.054-0.019-0.082
	c-0.006-0.025-0.012-0.051-0.018-0.076c-0.007-0.028-0.014-0.056-0.021-0.084c-0.006-0.024-0.013-0.049-0.019-0.073
	c-0.008-0.029-0.015-0.058-0.023-0.087c-0.007-0.024-0.013-0.048-0.02-0.072c-0.008-0.028-0.016-0.057-0.024-0.085
	c-0.007-0.025-0.015-0.05-0.022-0.076c-0.008-0.026-0.015-0.051-0.023-0.077c-0.008-0.027-0.017-0.054-0.025-0.08
	s-0.017-0.052-0.025-0.078c-0.008-0.025-0.017-0.051-0.025-0.076c-0.009-0.026-0.017-0.051-0.026-0.077
	c-0.009-0.025-0.018-0.051-0.026-0.076c-0.01-0.028-0.02-0.055-0.03-0.083c-0.008-0.023-0.017-0.046-0.025-0.069
	c-0.01-0.027-0.02-0.054-0.031-0.081c-0.009-0.025-0.019-0.049-0.028-0.073c-0.01-0.027-0.021-0.054-0.032-0.081
	c-0.009-0.023-0.018-0.046-0.028-0.069c-0.011-0.028-0.023-0.056-0.035-0.083c-0.009-0.022-0.018-0.043-0.027-0.065
	c-0.012-0.028-0.024-0.056-0.037-0.084c-0.01-0.023-0.02-0.046-0.031-0.07c-0.011-0.025-0.022-0.049-0.033-0.074
	c-0.011-0.024-0.022-0.048-0.033-0.072c-0.013-0.027-0.026-0.054-0.038-0.081c-0.01-0.022-0.021-0.043-0.031-0.065
	c-0.014-0.028-0.027-0.056-0.041-0.083c-0.01-0.021-0.02-0.041-0.031-0.062c-0.015-0.029-0.029-0.057-0.044-0.086
	c-0.01-0.019-0.02-0.038-0.03-0.058c-0.017-0.032-0.034-0.064-0.052-0.096c-0.008-0.015-0.016-0.03-0.024-0.044
	c-0.019-0.034-0.038-0.068-0.057-0.102c-0.008-0.014-0.015-0.027-0.023-0.041c-0.019-0.034-0.039-0.068-0.059-0.102
	c-0.008-0.013-0.015-0.026-0.023-0.039c-0.019-0.032-0.039-0.064-0.058-0.097c-0.009-0.015-0.018-0.03-0.027-0.044
	c-0.021-0.035-0.043-0.069-0.065-0.104c-0.007-0.011-0.014-0.022-0.021-0.033c-0.025-0.04-0.051-0.079-0.077-0.119
	c-0.004-0.006-0.008-0.012-0.011-0.017c-0.18-0.274-0.374-0.539-0.581-0.795c-0.005-0.006-0.01-0.012-0.014-0.017
	c-0.03-0.037-0.06-0.074-0.091-0.11c-0.003-0.004-0.007-0.008-0.01-0.012c-0.032-0.038-0.063-0.075-0.095-0.112
	c-0.007-0.008-0.014-0.016-0.021-0.024c-0.028-0.032-0.056-0.064-0.085-0.096c-0.013-0.014-0.026-0.029-0.039-0.043
	c-0.023-0.026-0.047-0.052-0.071-0.077c-0.013-0.014-0.026-0.027-0.039-0.041c-0.025-0.027-0.051-0.055-0.077-0.081
	c-0.011-0.011-0.021-0.022-0.032-0.033c-0.026-0.027-0.053-0.054-0.079-0.081c-0.015-0.015-0.029-0.029-0.044-0.044
	c-0.024-0.025-0.049-0.049-0.073-0.073c-0.014-0.014-0.029-0.028-0.043-0.042c-0.025-0.024-0.049-0.048-0.074-0.071
	c-0.016-0.015-0.032-0.03-0.048-0.045c-0.024-0.022-0.047-0.044-0.071-0.066c-0.018-0.016-0.036-0.033-0.054-0.049
	c-0.023-0.02-0.045-0.041-0.068-0.061c-0.018-0.016-0.035-0.031-0.053-0.047c-0.024-0.021-0.048-0.042-0.072-0.063
	c-0.018-0.015-0.035-0.03-0.053-0.045c-0.024-0.021-0.048-0.041-0.073-0.061c-0.018-0.015-0.036-0.03-0.054-0.045
	c-0.025-0.02-0.049-0.04-0.074-0.06c-0.019-0.015-0.038-0.03-0.056-0.045c-0.024-0.019-0.047-0.037-0.071-0.056
	c-0.02-0.016-0.041-0.032-0.061-0.047c-0.024-0.018-0.048-0.037-0.073-0.055c-0.019-0.014-0.038-0.028-0.056-0.042
	c-0.026-0.019-0.052-0.038-0.078-0.057c-0.018-0.013-0.036-0.026-0.054-0.039c-0.029-0.02-0.057-0.041-0.086-0.061
	c-0.016-0.011-0.032-0.022-0.047-0.033c-0.03-0.021-0.06-0.041-0.09-0.062c-0.017-0.011-0.033-0.022-0.05-0.033
	c-0.029-0.019-0.057-0.038-0.086-0.057c-0.019-0.012-0.037-0.024-0.056-0.036c-0.03-0.019-0.06-0.038-0.09-0.057
	c-0.016-0.01-0.031-0.02-0.047-0.029c-0.034-0.021-0.069-0.042-0.103-0.063c-0.012-0.007-0.024-0.015-0.037-0.022
	c-0.015-0.009-0.029-0.018-0.044-0.027c-0.023-0.014-0.046-0.027-0.069-0.04c-0.01-0.006-0.019-0.011-0.029-0.017
	c-0.04-0.023-0.08-0.045-0.12-0.068c-0.006-0.003-0.012-0.007-0.017-0.01l-0.047-0.026c-0.002-0.001-0.005-0.003-0.007-0.004
	l-139.875-77.425c-3.013-1.668-6.673-1.668-9.686,0l-67.368,37.29L154.772,67.757c-3.013-1.668-6.673-1.668-9.686,0L5.157,145.211
	c-0.008,0.004-0.016,0.009-0.023,0.013c-0.037,0.021-0.075,0.042-0.112,0.063C5.011,145.293,5,145.3,4.989,145.306
	c-0.023,0.013-0.045,0.026-0.067,0.039c-0.015,0.009-0.03,0.018-0.044,0.027c-0.012,0.007-0.024,0.015-0.037,0.022
	c-0.035,0.021-0.069,0.042-0.103,0.063c-0.016,0.01-0.031,0.02-0.047,0.029c-0.03,0.019-0.06,0.038-0.09,0.057
	c-0.019,0.012-0.037,0.024-0.056,0.036c-0.029,0.019-0.057,0.038-0.086,0.057c-0.017,0.011-0.033,0.022-0.05,0.033
	c-0.03,0.02-0.06,0.041-0.09,0.062c-0.016,0.011-0.032,0.022-0.047,0.033c-0.029,0.02-0.057,0.04-0.086,0.061
	c-0.018,0.013-0.036,0.026-0.054,0.039c-0.026,0.019-0.052,0.038-0.078,0.057c-0.019,0.014-0.038,0.028-0.056,0.042
	c-0.024,0.018-0.049,0.037-0.073,0.055c-0.02,0.016-0.041,0.031-0.061,0.047c-0.024,0.019-0.048,0.037-0.071,0.056
	c-0.019,0.015-0.038,0.03-0.056,0.045c-0.025,0.02-0.049,0.04-0.074,0.06c-0.018,0.015-0.036,0.03-0.054,0.045
	c-0.024,0.02-0.049,0.041-0.073,0.061c-0.018,0.015-0.035,0.03-0.053,0.045c-0.024,0.021-0.048,0.042-0.072,0.063
	c-0.018,0.016-0.035,0.031-0.053,0.047c-0.023,0.02-0.045,0.041-0.068,0.061c-0.018,0.016-0.036,0.033-0.054,0.049
	c-0.024,0.022-0.048,0.044-0.071,0.066c-0.016,0.015-0.032,0.03-0.048,0.045c-0.025,0.024-0.049,0.047-0.074,0.071
	c-0.014,0.014-0.029,0.028-0.043,0.042c-0.024,0.024-0.049,0.048-0.073,0.073c-0.015,0.015-0.029,0.029-0.044,0.044
	c-0.027,0.027-0.053,0.054-0.079,0.081c-0.011,0.011-0.021,0.022-0.032,0.033c-0.026,0.027-0.051,0.054-0.077,0.081
	c-0.013,0.014-0.026,0.027-0.039,0.041c-0.024,0.026-0.047,0.052-0.071,0.077c-0.013,0.014-0.026,0.029-0.039,0.043
	c-0.028,0.032-0.057,0.064-0.085,0.096c-0.007,0.008-0.014,0.016-0.021,0.024c-0.032,0.037-0.064,0.074-0.095,0.112
	c-0.003,0.004-0.007,0.008-0.01,0.012c-0.031,0.036-0.061,0.074-0.091,0.11c-0.005,0.006-0.01,0.012-0.014,0.017
	c-0.207,0.256-0.401,0.521-0.581,0.795c-0.004,0.006-0.008,0.012-0.011,0.017c-0.026,0.04-0.052,0.079-0.077,0.119
	c-0.007,0.011-0.014,0.022-0.021,0.033c-0.022,0.034-0.043,0.069-0.064,0.104c-0.009,0.015-0.018,0.03-0.027,0.045
	c-0.019,0.032-0.039,0.064-0.058,0.097c-0.008,0.013-0.015,0.026-0.023,0.039c-0.02,0.034-0.04,0.068-0.059,0.102
	c-0.008,0.013-0.015,0.027-0.023,0.04c-0.019,0.034-0.038,0.068-0.057,0.102c-0.008,0.015-0.016,0.029-0.024,0.044
	c-0.017,0.032-0.035,0.064-0.051,0.096c-0.01,0.019-0.02,0.038-0.03,0.058c-0.015,0.029-0.03,0.057-0.044,0.086
	c-0.01,0.021-0.021,0.041-0.031,0.062c-0.014,0.028-0.028,0.055-0.041,0.083c-0.011,0.022-0.021,0.043-0.031,0.065
	c-0.013,0.027-0.026,0.054-0.038,0.081c-0.011,0.024-0.022,0.048-0.033,0.072c-0.011,0.025-0.022,0.049-0.033,0.074
	c-0.01,0.023-0.021,0.046-0.031,0.07c-0.012,0.028-0.025,0.056-0.036,0.084c-0.009,0.021-0.018,0.043-0.027,0.065
	c-0.012,0.028-0.023,0.055-0.035,0.083c-0.009,0.023-0.019,0.046-0.028,0.069c-0.011,0.027-0.021,0.054-0.032,0.081
	c-0.009,0.024-0.019,0.049-0.028,0.073c-0.01,0.027-0.021,0.054-0.03,0.081c-0.009,0.023-0.017,0.046-0.025,0.069
	c-0.01,0.028-0.02,0.055-0.03,0.083c-0.009,0.025-0.018,0.051-0.026,0.076c-0.009,0.026-0.017,0.051-0.026,0.077
	c-0.009,0.025-0.017,0.05-0.025,0.076s-0.017,0.052-0.025,0.078c-0.008,0.027-0.017,0.054-0.025,0.08
	c-0.008,0.026-0.016,0.051-0.023,0.077c-0.007,0.025-0.015,0.051-0.022,0.076c-0.008,0.028-0.016,0.056-0.024,0.085
	c-0.007,0.024-0.013,0.048-0.02,0.072c-0.008,0.029-0.016,0.058-0.023,0.087c-0.006,0.024-0.013,0.049-0.019,0.073
	c-0.007,0.028-0.014,0.056-0.021,0.084c-0.006,0.025-0.013,0.051-0.019,0.076c-0.006,0.027-0.013,0.054-0.019,0.082
	c-0.006,0.026-0.012,0.053-0.018,0.079c-0.006,0.027-0.012,0.054-0.017,0.081c-0.006,0.027-0.011,0.054-0.017,0.081
	c-0.006,0.027-0.011,0.054-0.016,0.082c-0.005,0.026-0.01,0.052-0.015,0.077c-0.005,0.029-0.01,0.058-0.016,0.087
	c-0.004,0.026-0.009,0.051-0.013,0.077c-0.005,0.028-0.009,0.056-0.014,0.085c-0.004,0.026-0.008,0.052-0.012,0.078
	c-0.004,0.027-0.008,0.053-0.012,0.08c-0.004,0.029-0.008,0.059-0.012,0.088c-0.003,0.024-0.006,0.049-0.009,0.074
	c-0.004,0.029-0.007,0.058-0.011,0.087c-0.004,0.03-0.007,0.06-0.01,0.09c-0.003,0.024-0.005,0.049-0.008,0.073
	c-0.003,0.035-0.006,0.069-0.01,0.104c-0.002,0.02-0.004,0.041-0.006,0.061c-0.003,0.031-0.005,0.062-0.007,0.093
	c-0.002,0.026-0.004,0.052-0.006,0.077c-0.002,0.027-0.003,0.054-0.005,0.081c-0.002,0.028-0.003,0.056-0.005,0.084
	c-0.001,0.025-0.002,0.051-0.003,0.076c-0.001,0.031-0.003,0.063-0.004,0.094C0.002,153.739,0,153.849,0,153.96v166.593
	c0,3.637,1.975,6.988,5.157,8.749l139.929,77.454c0.005,0.003,0.009,0.005,0.014,0.008c0.038,0.021,0.075,0.041,0.113,0.061
	c0.009,0.005,0.018,0.01,0.028,0.015c0.036,0.019,0.073,0.038,0.109,0.057c0.015,0.008,0.03,0.016,0.045,0.023
	c0.032,0.016,0.064,0.033,0.096,0.048c0.017,0.008,0.033,0.016,0.05,0.025c0.034,0.016,0.067,0.033,0.101,0.049
	c0.014,0.007,0.028,0.013,0.042,0.02c0.034,0.016,0.068,0.032,0.102,0.047c0.017,0.008,0.034,0.015,0.05,0.023
	c0.033,0.015,0.066,0.029,0.099,0.044c0.016,0.007,0.032,0.014,0.048,0.021c0.033,0.014,0.067,0.029,0.1,0.043
	c0.017,0.007,0.033,0.014,0.05,0.02c0.034,0.014,0.068,0.028,0.102,0.041c0.016,0.006,0.031,0.012,0.047,0.018
	c0.034,0.013,0.068,0.026,0.102,0.039c0.021,0.008,0.041,0.015,0.062,0.023c0.03,0.011,0.059,0.022,0.089,0.033
	c0.018,0.007,0.037,0.013,0.055,0.02c0.102,0.036,0.204,0.07,0.306,0.103c0.032,0.01,0.065,0.021,0.097,0.03
	c0.02,0.006,0.04,0.012,0.06,0.018c0.033,0.01,0.065,0.02,0.098,0.029c0.02,0.006,0.039,0.011,0.059,0.017
	c0.032,0.009,0.063,0.018,0.095,0.027c0.023,0.006,0.047,0.012,0.07,0.019c0.029,0.008,0.059,0.015,0.088,0.023
	c0.022,0.006,0.044,0.011,0.066,0.016c0.03,0.008,0.061,0.015,0.091,0.022c0.023,0.005,0.046,0.011,0.069,0.016
	c0.029,0.007,0.058,0.013,0.087,0.02c0.025,0.005,0.05,0.011,0.075,0.016c0.027,0.006,0.054,0.011,0.081,0.017
	c0.026,0.005,0.052,0.01,0.079,0.016c0.027,0.005,0.054,0.011,0.081,0.016c0.024,0.004,0.049,0.009,0.073,0.013
	c0.03,0.005,0.06,0.011,0.09,0.016c0.021,0.003,0.043,0.007,0.064,0.01c0.031,0.005,0.062,0.01,0.093,0.015
	c0.025,0.004,0.049,0.008,0.074,0.011c0.027,0.004,0.054,0.008,0.082,0.012c0.026,0.003,0.052,0.007,0.078,0.01
	c0.027,0.003,0.055,0.007,0.082,0.01c0.026,0.003,0.051,0.006,0.077,0.009c0.029,0.003,0.059,0.006,0.088,0.009
	c0.023,0.002,0.046,0.005,0.069,0.007c0.033,0.003,0.065,0.006,0.098,0.009c0.02,0.002,0.041,0.004,0.061,0.005
	c0.032,0.003,0.064,0.005,0.096,0.007c0.023,0.002,0.046,0.003,0.069,0.005c0.03,0.002,0.059,0.004,0.089,0.005
	c0.023,0.001,0.047,0.003,0.07,0.004c0.033,0.002,0.067,0.003,0.1,0.004c0.02,0.001,0.04,0.002,0.06,0.002
	c0.034,0.001,0.068,0.002,0.102,0.003c0.02,0.001,0.04,0.001,0.06,0.002c0.053,0.001,0.107,0.001,0.16,0.001
	c0.053,0,0.107,0,0.16-0.001c0.02,0,0.039-0.001,0.059-0.002c0.035-0.001,0.069-0.001,0.104-0.003
	c0.02-0.001,0.039-0.001,0.059-0.002c0.034-0.001,0.068-0.002,0.102-0.004c0.023-0.001,0.046-0.003,0.068-0.004
	c0.03-0.002,0.06-0.003,0.09-0.005c0.025-0.001,0.05-0.003,0.075-0.005c0.029-0.002,0.057-0.004,0.086-0.007
	c0.025-0.002,0.05-0.004,0.075-0.006c0.028-0.003,0.056-0.005,0.084-0.008c0.027-0.003,0.054-0.005,0.081-0.008
	c0.025-0.003,0.051-0.005,0.076-0.008c0.029-0.003,0.058-0.007,0.087-0.01c0.024-0.003,0.048-0.006,0.072-0.009
	c0.029-0.004,0.058-0.008,0.087-0.012c0.024-0.003,0.048-0.007,0.071-0.01c0.029-0.004,0.059-0.009,0.089-0.013
	c0.024-0.004,0.048-0.007,0.072-0.011c0.029-0.005,0.058-0.009,0.087-0.014c0.023-0.004,0.045-0.008,0.068-0.012
	c0.031-0.006,0.063-0.011,0.094-0.017c0.02-0.004,0.039-0.007,0.059-0.011c0.033-0.006,0.066-0.013,0.099-0.02
	c0.02-0.004,0.039-0.008,0.059-0.012c0.032-0.007,0.064-0.013,0.096-0.021c0.021-0.004,0.041-0.009,0.061-0.014
	c0.033-0.008,0.067-0.015,0.1-0.023c0.015-0.004,0.029-0.007,0.044-0.011c0.038-0.009,0.075-0.018,0.113-0.028
	c0.012-0.003,0.023-0.006,0.035-0.009c0.041-0.01,0.082-0.021,0.122-0.032c0.004-0.001,0.007-0.002,0.011-0.003
	c0.452-0.124,0.897-0.28,1.331-0.468c0.002-0.001,0.004-0.002,0.006-0.003c0.045-0.02,0.09-0.039,0.134-0.06
	c0.005-0.002,0.01-0.005,0.015-0.007c0.043-0.02,0.086-0.04,0.13-0.06c0.006-0.003,0.012-0.005,0.017-0.008
	c0.041-0.02,0.083-0.039,0.124-0.06c0.009-0.004,0.017-0.009,0.026-0.013c0.04-0.02,0.08-0.04,0.12-0.06
	c0.008-0.004,0.015-0.008,0.023-0.012c0.04-0.021,0.08-0.041,0.12-0.063c0.009-0.005,0.018-0.009,0.027-0.014
	c0.038-0.02,0.075-0.041,0.113-0.061c0.005-0.003,0.009-0.005,0.014-0.008l67.368-37.29l135.087,74.774
	c0.005,0.003,0.009,0.005,0.014,0.008c0.037,0.021,0.075,0.041,0.113,0.061c0.009,0.005,0.018,0.01,0.028,0.015
	c0.036,0.019,0.073,0.038,0.109,0.057c0.015,0.008,0.03,0.016,0.045,0.023c0.032,0.016,0.064,0.033,0.096,0.048
	c0.017,0.008,0.033,0.017,0.05,0.025c0.034,0.017,0.067,0.033,0.101,0.049c0.014,0.007,0.028,0.013,0.042,0.02
	c0.034,0.016,0.068,0.032,0.102,0.047c0.017,0.008,0.034,0.015,0.05,0.023c0.033,0.015,0.066,0.03,0.099,0.044
	c0.016,0.007,0.032,0.014,0.048,0.021c0.033,0.014,0.067,0.029,0.1,0.043c0.017,0.007,0.033,0.014,0.05,0.02
	c0.034,0.014,0.068,0.028,0.102,0.041c0.015,0.006,0.031,0.012,0.047,0.018c0.034,0.013,0.068,0.026,0.102,0.039
	c0.021,0.008,0.041,0.015,0.062,0.023c0.03,0.011,0.059,0.022,0.089,0.033c0.018,0.007,0.037,0.013,0.055,0.02
	c0.102,0.036,0.203,0.07,0.306,0.103c0.032,0.01,0.065,0.021,0.097,0.031c0.02,0.006,0.04,0.012,0.06,0.018
	c0.033,0.01,0.065,0.02,0.098,0.029c0.02,0.006,0.039,0.011,0.059,0.017c0.032,0.009,0.063,0.018,0.095,0.027
	c0.023,0.006,0.047,0.012,0.07,0.019c0.029,0.008,0.059,0.015,0.088,0.023c0.022,0.006,0.044,0.011,0.066,0.016
	c0.03,0.008,0.061,0.015,0.091,0.022c0.023,0.005,0.046,0.011,0.069,0.016c0.029,0.007,0.058,0.013,0.087,0.02
	c0.025,0.005,0.05,0.011,0.075,0.016c0.027,0.006,0.054,0.011,0.081,0.017c0.026,0.005,0.052,0.01,0.079,0.016
	c0.027,0.005,0.054,0.011,0.081,0.016c0.024,0.005,0.049,0.009,0.073,0.013c0.03,0.005,0.06,0.011,0.091,0.016
	c0.021,0.004,0.043,0.007,0.064,0.01c0.031,0.005,0.062,0.01,0.093,0.015c0.025,0.004,0.049,0.007,0.074,0.011
	c0.027,0.004,0.055,0.008,0.082,0.012c0.026,0.004,0.052,0.007,0.078,0.01c0.027,0.004,0.055,0.007,0.082,0.01
	c0.026,0.003,0.051,0.006,0.077,0.009c0.029,0.003,0.059,0.006,0.088,0.009c0.023,0.003,0.046,0.005,0.069,0.007
	c0.033,0.003,0.065,0.006,0.098,0.009c0.02,0.002,0.041,0.004,0.061,0.005c0.032,0.003,0.064,0.005,0.096,0.007
	c0.023,0.001,0.046,0.003,0.069,0.005c0.03,0.002,0.059,0.004,0.089,0.005c0.023,0.001,0.047,0.003,0.07,0.004
	c0.033,0.002,0.067,0.003,0.1,0.004c0.02,0.001,0.04,0.002,0.06,0.002c0.034,0.001,0.068,0.002,0.102,0.003
	c0.02,0,0.04,0.001,0.06,0.001c0.053,0.001,0.107,0.001,0.16,0.001s0.107,0,0.16-0.001c0.02,0,0.039-0.001,0.059-0.001
	c0.035-0.001,0.069-0.001,0.104-0.003c0.02-0.001,0.039-0.002,0.059-0.002c0.034-0.001,0.068-0.002,0.102-0.004
	c0.023-0.001,0.046-0.003,0.068-0.004c0.03-0.002,0.06-0.003,0.09-0.005c0.025-0.002,0.05-0.003,0.075-0.005
	c0.029-0.002,0.057-0.004,0.086-0.007c0.025-0.002,0.05-0.004,0.075-0.006c0.028-0.003,0.056-0.005,0.084-0.008
	c0.027-0.003,0.054-0.005,0.081-0.008c0.025-0.003,0.051-0.005,0.076-0.008c0.029-0.003,0.058-0.007,0.087-0.01
	c0.024-0.003,0.048-0.006,0.072-0.009c0.029-0.004,0.058-0.008,0.087-0.012c0.024-0.003,0.048-0.007,0.071-0.01
	c0.029-0.004,0.059-0.009,0.089-0.013c0.024-0.004,0.048-0.007,0.071-0.011c0.029-0.005,0.058-0.009,0.087-0.014
	c0.023-0.004,0.045-0.008,0.068-0.012c0.031-0.005,0.063-0.011,0.094-0.017c0.02-0.004,0.039-0.007,0.059-0.011
	c0.033-0.006,0.066-0.013,0.099-0.02c0.02-0.004,0.039-0.008,0.059-0.012c0.032-0.007,0.064-0.013,0.096-0.021
	c0.02-0.005,0.041-0.009,0.061-0.014c0.033-0.008,0.067-0.015,0.1-0.023c0.015-0.003,0.029-0.007,0.044-0.011
	c0.038-0.009,0.075-0.018,0.113-0.028c0.012-0.003,0.023-0.006,0.035-0.009c0.041-0.01,0.082-0.021,0.122-0.032
	c0.004-0.001,0.007-0.002,0.011-0.003c0.452-0.124,0.897-0.28,1.331-0.468c0.002-0.001,0.004-0.002,0.006-0.003
	c0.045-0.019,0.09-0.039,0.134-0.059c0.005-0.002,0.01-0.005,0.015-0.007c0.043-0.02,0.086-0.04,0.129-0.06
	c0.006-0.003,0.012-0.005,0.017-0.008c0.041-0.02,0.083-0.039,0.124-0.059c0.009-0.004,0.017-0.009,0.026-0.013
	c0.04-0.02,0.08-0.04,0.12-0.06c0.008-0.004,0.015-0.008,0.023-0.012c0.04-0.021,0.08-0.041,0.12-0.063
	c0.009-0.005,0.018-0.009,0.027-0.014c0.038-0.02,0.075-0.04,0.113-0.061c0.005-0.003,0.009-0.005,0.014-0.008l139.929-77.454
	c3.182-1.761,5.157-5.112,5.157-8.749V191.444C511.999,191.333,511.997,191.222,511.993,191.112z M362.07,125.419l119.28,66.025
	l-119.28,66.025l-119.28-66.024L362.07,125.419z M149.929,87.936l119.281,66.025l-119.281,66.024l-119.28-66.024L149.929,87.936z
	 M20,170.925l2.848,1.576l117.081,64.807v143.733L20,314.659V170.925z M159.929,237.309l52.211-28.9v143.733l-52.211,28.9V237.309z
	 M232.14,208.409l119.93,66.384v143.733l-119.93-66.384L232.14,208.409L232.14,208.409z M372.07,418.526V274.793l117.081-64.807
	l2.848-1.577v143.733L372.07,418.526z"/>
<path d="M362.069,233.113c-1.668,0-3.336-0.417-4.843-1.251l-57.211-31.668c-4.832-2.675-6.581-8.76-3.906-13.592
	s8.76-6.581,13.592-3.906l52.369,28.988l52.369-28.988c4.831-2.676,10.917-0.926,13.592,3.906
	c2.675,4.832,0.926,10.917-3.906,13.592l-57.212,31.668C365.406,232.696,363.737,233.113,362.069,233.113z"/>
<circle cx="322.01" cy="292.509" r="9.997"/>
<circle cx="109.87" cy="255.029" r="10"/>
<g>
</g>
<g>
</g>
<g>
</g>
<g>
</g>
<g>
</g>
<g>
</g>
<g>
</g>
<g>
</g>
<g>
</g>
<g>
</g>
<g>
</g>
<g>
</g>
<g>
</g>
<g>
</g>
<g>
</g>
</svg>
