<svg xmlns="http://www.w3.org/2000/svg" xmlns:v="http://vecta.io" xmlns:xlink="http://www.w3.org/1999/xlink" viewBox="0 0 85 85" stroke="#000" stroke-linecap="round" stroke-linejoin="round" fill="#fff" fill-rule="evenodd" font-family="Roboto" font-size="14px" text-anchor="middle" width="300" height="300"><defs><style type="text/css"></style></defs><use xlink:href="#sP58uPIuI9I9UOOjJ6I0tG.sym" x="2.5" y="2.5"><title>Lambda Function</title></use><symbol id="sP58uPIuI9I9UOOjJ6I0tG.sym" overflow="visible" v:tags="aws, amazon, compute, lambda"><title>Lambda Function</title><desc>Custom code that processes the events in AWS Lambda.</desc><g id="j3in8siefpb" class="Group.cls" transform="translate(0 0)" v:size="85,85,2.5,2.5"><g id="j3in8sgnfp3" transform="translate(0 3.1566)"><path d="M 0 38.4217 C 0 17.1362 17.84 0 40.0001 0 C 62.16 0 80 17.1362 80 38.4217 C 80 59.7074 62.16 76.8434 40.0001 76.8434 C 17.84 76.8434 0 59.7074 0 38.4217 Z" fill="#9d5025" stroke="none"></path></g><g id="j3in8sh3fp4" transform="translate(0 38.4217)"><path d="M 0 0 L 80 0 L 80 3.1566 L 0 3.1566 Z" fill="#9d5025" stroke="none"></path></g><g id="j3in8shnfp5" transform="translate(0 0)"><path d="M 0 38.4217 C 0 17.1362 17.84 0 40.0001 0 C 62.16 0 80 17.1362 80 38.4217 C 80 59.7074 62.16 76.8434 40.0001 76.8434 C 17.84 76.8434 0 59.7074 0 38.4217 Z" fill="#f58536" stroke="none"></path></g><g id="j3in8shzfp6" transform="translate(15.7739 11.8057)"><path d="M 50.2532 45.4924 L 47.1508 37.6767 L 40.2104 40.2272 L 30.286 15.2651 L 27.5256 8.3586 L 26.2372 5.1009 L 24.1999 0 L 14.8801 0 L 11.0549 0 L 11.0549 8.3586 L 18.2059 8.3586 L 20.6901 14.5959 L 0 49.9746 L 9.9903 49.9746 L 24.7388 24.7474 L 35.189 51.0225 L 37.6736 50.1135 L 43.3258 48.0428 L 43.3258 48.0428 L 50.2532 45.4924 Z" fill="#ffffff" stroke="none"></path></g></g></symbol></svg>